<svg xmlns="http://www.w3.org/2000/svg" viewBox="0 0 630.367 618.433" fill="none" stroke="#b8842c" stroke-width="35" stroke-linecap="round" stroke-linejoin="round">
  <path
    d="M78 387.5C152.631 368.891 76.4167 392.232 49.7159 390.136C29.1717 388.523 9.13425 371.072 2.55369 390.136C-12.5464 433.88 43.4887 557.5 61.4994 557.5C97.5603 557.5 95.1332 499.399 184.592 475.119C256.159 455.694 409.626 508.071 456.782 345.043C503.939 182.015 572.94 180.281 582.476 175.078C592.011 169.875 556.99 105.184 472.386 130.853C450.907 137.369 435.465 148.71 424.171 156.868C399.875 174.416 397.5 180 389 185.5C380.5 191 368.5 203 313.753 182.016C259.005 161.031 242.331 146.042 189.5 107C156.829 82.8558 176 96.4999 75.369 10.3161C-25.262 -75.8676 145.757 407.479 184.592 365.855C197.353 352.189 196.253 346.982 199.328 332.903C205.612 304.136 206.358 271.572 217.532 286.943C224.842 296.998 237.881 316.154 248.739 335.504C262.601 360.21 276.478 376.261 284.28 374.527C292.081 372.793 325.888 347.298 325.888 335.504C325.888 331.568 324.906 329.488 317.921 320.623C315.251 317.234 311.705 312.855 307 307C287.143 282.288 243.751 226.465 280 273"
    transform="matrix(0.996195,-0.0871557,0.0871557,0.996195,0,50.899)"
  />
</svg>
